<?xml version="1.0" encoding="UTF-8"?>
<svg xmlns="http://www.w3.org/2000/svg" xmlns:xlink="http://www.w3.org/1999/xlink" viewBox="0 0 800 600">
  <!-- Background -->
  <rect width="800" height="600" fill="#f8fafc" />
  
  <!-- Title -->
  <text x="400" y="40" font-family="Arial" font-size="24" font-weight="bold" text-anchor="middle" fill="#1A365D">Platform Intelligence Agent - Initial Phase Architecture</text>
  
  <!-- Legend -->
  <rect x="600" y="70" width="180" height="80" fill="#F7FAFC" rx="5" ry="5" stroke="#CBD5E0" stroke-width="1" />
  <text x="690" y="90" font-family="Arial" font-size="14" font-weight="bold" text-anchor="middle" fill="#1A365D">Legend</text>
  
  <rect x="615" y="100" width="15" height="15" fill="#90CDF4" rx="2" ry="2" stroke="#3182CE" stroke-width="1" />
  <text x="680" y="112" font-family="Arial" font-size="12" fill="#1A365D">Phase 1 Component</text>
  
  <rect x="615" y="125" width="15" height="15" fill="#E2E8F0" rx="2" ry="2" stroke="#718096" stroke-width="1" />
  <text x="680" y="137" font-family="Arial" font-size="12" fill="#1A365D">Future Phase</text>
  
  <!-- Data Sources Layer -->
  <rect x="100" y="80" width="480" height="80" fill="#E6FFFA" rx="5" ry="5" stroke="#2C7A7B" stroke-width="2" />
  <text x="340" y="105" font-family="Arial" font-size="16" font-weight="bold" text-anchor="middle" fill="#1A365D">Data Sources</text>
  
  <!-- Data Source Icons - Phase 1 -->
  <rect x="130" y="120" width="80" height="30" fill="#90CDF4" rx="5" ry="5" stroke="#3182CE" stroke-width="1" />
  <text x="170" y="140" font-family="Arial" font-size="12" text-anchor="middle" fill="#1A365D">GitHub</text>
  
  <rect x="230" y="120" width="80" height="30" fill="#90CDF4" rx="5" ry="5" stroke="#3182CE" stroke-width="1" />
  <text x="270" y="140" font-family="Arial" font-size="12" text-anchor="middle" fill="#1A365D">GitLab</text>
  
  <rect x="330" y="120" width="80" height="30" fill="#90CDF4" rx="5" ry="5" stroke="#3182CE" stroke-width="1" />
  <text x="370" y="140" font-family="Arial" font-size="12" text-anchor="middle" fill="#1A365D">Bitbucket</text>
  
  <!-- Data Source Icons - Future Phases -->
  <rect x="430" y="120" width="130" height="30" fill="#E2E8F0" rx="5" ry="5" stroke="#718096" stroke-width="1" />
  <text x="495" y="140" font-family="Arial" font-size="12" text-anchor="middle" fill="#1A365D">Additional Providers</text>
  
  <!-- Connection Lines -->
  <line x1="170" y1="150" x2="170" y2="180" stroke="#2C7A7B" stroke-width="2" />
  <line x1="270" y1="150" x2="270" y2="180" stroke="#2C7A7B" stroke-width="2" />
  <line x1="370" y1="150" x2="370" y2="180" stroke="#2C7A7B" stroke-width="2" />
  
  <!-- Data Collection Layer -->
  <rect x="100" y="180" width="480" height="80" fill="#EBF8FF" rx="5" ry="5" stroke="#3182CE" stroke-width="2" />
  <text x="340" y="205" font-family="Arial" font-size="16" font-weight="bold" text-anchor="middle" fill="#1A365D">Data Collection Layer</text>
  
  <rect x="130" y="220" width="200" height="30" fill="#90CDF4" rx="5" ry="5" stroke="#3182CE" stroke-width="1" />
  <text x="230" y="240" font-family="Arial" font-size="12" text-anchor="middle" fill="#1A365D">Git Provider Connectors</text>
  
  <rect x="350" y="220" width="200" height="30" fill="#E2E8F0" rx="5" ry="5" stroke="#718096" stroke-width="1" />
  <text x="450" y="240" font-family="Arial" font-size="12" text-anchor="middle" fill="#1A365D">CI/CD Connectors (Future)</text>
  
  <!-- Connection Lines -->
  <line x1="230" y1="260" x2="230" y2="280" stroke="#3182CE" stroke-width="2" />
  
  <!-- Data Processing Layer -->
  <rect x="100" y="280" width="480" height="80" fill="#F0FFF4" rx="5" ry="5" stroke="#38A169" stroke-width="2" />
  <text x="340" y="305" font-family="Arial" font-size="16" font-weight="bold" text-anchor="middle" fill="#1A365D">Data Processing Layer</text>
  
  <rect x="130" y="320" width="110" height="30" fill="#90CDF4" rx="5" ry="5" stroke="#3182CE" stroke-width="1" />
  <text x="185" y="340" font-family="Arial" font-size="12" text-anchor="middle" fill="#1A365D">ETL Pipeline</text>
  
  <rect x="250" y="320" width="110" height="30" fill="#90CDF4" rx="5" ry="5" stroke="#3182CE" stroke-width="1" />
  <text x="305" y="340" font-family="Arial" font-size="12" text-anchor="middle" fill="#1A365D">Knowledge Graph</text>
  
  <rect x="370" y="320" width="180" height="30" fill="#E2E8F0" rx="5" ry="5" stroke="#718096" stroke-width="1" />
  <text x="460" y="340" font-family="Arial" font-size="12" text-anchor="middle" fill="#1A365D">Advanced Processing (Future)</text>
  
  <!-- Connection Lines -->
  <line x1="185" y1="360" x2="185" y2="380" stroke="#38A169" stroke-width="2" />
  <line x1="305" y1="360" x2="305" y2="380" stroke="#38A169" stroke-width="2" />
  
  <!-- Intelligence Layer -->
  <rect x="100" y="380" width="480" height="80" fill="#FEFCBF" rx="5" ry="5" stroke="#D69E2E" stroke-width="2" />
  <text x="340" y="405" font-family="Arial" font-size="16" font-weight="bold" text-anchor="middle" fill="#1A365D">Intelligence Layer</text>
  
  <rect x="130" y="420" width="140" height="30" fill="#90CDF4" rx="5" ry="5" stroke="#3182CE" stroke-width="1" />
  <text x="200" y="440" font-family="Arial" font-size="12" text-anchor="middle" fill="#1A365D">Dependency Analysis</text>
  
  <rect x="280" y="420" width="140" height="30" fill="#90CDF4" rx="5" ry="5" stroke="#3182CE" stroke-width="1" />
  <text x="350" y="440" font-family="Arial" font-size="12" text-anchor="middle" fill="#1A365D">Impact Assessment</text>
  
  <rect x="430" y="420" width="120" height="30" fill="#E2E8F0" rx="5" ry="5" stroke="#718096" stroke-width="1" />
  <text x="490" y="440" font-family="Arial" font-size="12" text-anchor="middle" fill="#1A365D">ML Models (Future)</text>
  
  <!-- Connection Lines -->
  <line x1="200" y1="460" x2="200" y2="480" stroke="#D69E2E" stroke-width="2" />
  <line x1="350" y1="460" x2="350" y2="480" stroke="#D69E2E" stroke-width="2" />
  
  <!-- API Layer -->
  <rect x="100" y="480" width="480" height="80" fill="#FED7E2" rx="5" ry="5" stroke="#D53F8C" stroke-width="2" />
  <text x="340" y="505" font-family="Arial" font-size="16" font-weight="bold" text-anchor="middle" fill="#1A365D">API Layer</text>
  
  <rect x="130" y="520" width="220" height="30" fill="#90CDF4" rx="5" ry="5" stroke="#3182CE" stroke-width="1" />
  <text x="240" y="540" font-family="Arial" font-size="12" text-anchor="middle" fill="#1A365D">REST API (Basic Endpoints)</text>
  
  <rect x="370" y="520" width="180" height="30" fill="#E2E8F0" rx="5" ry="5" stroke="#718096" stroke-width="1" />
  <text x="460" y="540" font-family="Arial" font-size="12" text-anchor="middle" fill="#1A365D">Advanced APIs (Future)</text>

  <!-- Phase 1 Completion Marker -->
  <path d="M 20,80 L 40,80 L 40,560 L 20,560 z" fill="#3182CE" />
  <text x="30" y="320" font-family="Arial" font-size="14" font-weight="bold" text-anchor="middle" fill="white" transform="rotate(270,30,320)">PHASE 1 MVP</text>
  
  <!-- Future Phase Marker -->
  <text x="65" y="320" font-family="Arial" font-size="12" font-style="italic" text-anchor="middle" fill="#718096" transform="rotate(270,65,320)">FUTURE PHASES</text>
</svg>